<?xml version="1.0" encoding="UTF-8"?>
<!DOCTYPE svg PUBLIC "-//W3C//DTD SVG 1.1//EN" "http://www.w3.org/Graphics/SVG/1.1/DTD/svg11.dtd">
<svg xmlns="http://www.w3.org/2000/svg" version="1.1" viewBox="0 0 73 73" stroke="none">
	<rect width="100%" height="100%" fill="#ffffff"/>
	<path d="M20,20h7v1h-7z M28,20h2v2h-2z M31,20h2v2h-2z M39,20h1v1h-1z M42,20h2v4h-2z M44,20h1v1h-1z M46,20h7v1h-7z M20,21h1v6h-1z M26,21h1v6h-1z M30,21h1v1h-1z M34,21h1v2h-1z M37,21h2v1h-2z M40,21h2v1h-2z M46,21h1v6h-1z M52,21h1v6h-1z M22,22h3v3h-3z M32,22h2v1h-2z M35,22h2v1h-2z M38,22h1v1h-1z M40,22h1v1h-1z M44,22h1v5h-1z M48,22h3v3h-3z M28,23h1v1h-1z M30,23h1v1h-1z M32,23h1v1h-1z M35,23h1v1h-1z M37,23h1v2h-1z M33,24h1v1h-1z M36,24h1v4h-1z M39,24h1v2h-1z M31,25h2v1h-2z M34,25h1v4h-1z M35,25h1v1h-1z M38,25h1v2h-1z M42,25h1v2h-1z M21,26h5v1h-5z M28,26h1v2h-1z M30,26h1v2h-1z M32,26h1v1h-1z M40,26h1v3h-1z M47,26h5v1h-5z M35,27h1v2h-1z M37,27h1v2h-1z M39,27h1v1h-1z M43,27h1v4h-1z M20,28h1v4h-1z M22,28h2v2h-2z M25,28h3v1h-3z M29,28h1v2h-1z M31,28h1v3h-1z M32,28h1v1h-1z M41,28h2v1h-2z M46,28h1v3h-1z M49,28h1v5h-1z M51,28h2v1h-2z M24,29h1v3h-1z M25,29h1v1h-1z M30,29h1v2h-1z M33,29h1v2h-1z M36,29h1v2h-1z M38,29h2v1h-2z M41,29h1v1h-1z M44,29h2v1h-2z M47,29h1v6h-1z M50,29h1v1h-1z M52,29h1v2h-1z M21,30h1v3h-1z M23,30h1v1h-1z M26,30h3v1h-3z M40,30h1v1h-1z M45,30h1v1h-1z M48,30h1v1h-1z M51,30h1v1h-1z M25,31h1v1h-1z M28,31h1v2h-1z M38,31h1v1h-1z M26,32h1v1h-1z M29,32h1v2h-1z M31,32h1v3h-1z M32,32h1v1h-1z M34,32h4v1h-4z M42,32h1v2h-1z M44,32h1v2h-1z M48,32h1v1h-1z M51,32h2v1h-2z M22,33h4v1h-4z M27,33h1v1h-1z M30,33h1v5h-1z M34,33h1v1h-1z M38,33h2v2h-2z M41,33h1v4h-1z M45,33h1v3h-1z M50,33h2v1h-2z M21,34h1v3h-1z M22,34h1v1h-1z M26,34h1v1h-1z M37,34h1v1h-1z M40,34h1v2h-1z M48,34h1v6h-1z M20,35h1v3h-1z M29,35h1v3h-1z M32,35h1v3h-1z M34,35h2v1h-2z M39,35h1v2h-1z M43,35h2v2h-2z M50,35h1v2h-1z M25,36h1v3h-1z M26,36h1v1h-1z M33,36h1v6h-1z M34,36h1v1h-1z M38,36h1v2h-1z M46,36h1v4h-1z M24,37h1v3h-1z M27,37h1v4h-1z M35,37h1v7h-1z M43,37h1v1h-1z M49,37h1v1h-1z M51,37h2v1h-2z M23,38h1v4h-1z M26,38h1v1h-1z M28,38h1v1h-1z M31,38h1v1h-1z M40,38h3v1h-3z M44,38h2v2h-2z M50,38h2v1h-2z M20,39h2v1h-2z M29,39h1v5h-1z M30,39h1v1h-1z M32,39h1v2h-1z M36,39h1v3h-1z M37,39h1v1h-1z M40,39h1v1h-1z M42,39h1v1h-1z M47,39h1v1h-1z M52,39h1v1h-1z M26,40h1v1h-1z M28,40h1v3h-1z M39,40h1v2h-1z M41,40h1v2h-1z M43,40h1v4h-1z M49,40h2v1h-2z M20,41h2v1h-2z M38,41h1v1h-1z M40,41h1v2h-1z M42,41h1v1h-1z M49,41h1v1h-1z M52,41h1v3h-1z M22,42h1v2h-1z M26,42h2v1h-2z M31,42h1v1h-1z M34,42h1v4h-1z M46,42h1v3h-1z M47,42h1v1h-1z M50,42h2v1h-2z M21,43h1v1h-1z M23,43h2v1h-2z M30,43h1v5h-1z M33,43h1v1h-1z M45,43h1v2h-1z M48,43h1v6h-1z M49,43h1v1h-1z M20,44h1v1h-1z M23,44h1v1h-1z M26,44h1v1h-1z M28,44h1v4h-1z M31,44h2v1h-2z M37,44h1v1h-1z M40,44h1v4h-1z M44,44h1v8h-1z M47,44h1v1h-1z M51,44h1v2h-1z M29,45h1v4h-1z M32,45h2v2h-2z M35,45h2v1h-2z M38,45h2v2h-2z M42,45h2v1h-2z M49,45h1v1h-1z M20,46h7v1h-7z M31,46h1v2h-1z M36,46h2v3h-2z M43,46h1v1h-1z M46,46h1v1h-1z M20,47h1v6h-1z M26,47h1v6h-1z M34,47h1v2h-1z M38,47h1v2h-1z M41,47h1v1h-1z M50,47h1v2h-1z M22,48h3v3h-3z M35,48h1v1h-1z M42,48h2v1h-2z M45,48h1v4h-1z M46,48h2v1h-2z M28,49h1v2h-1z M31,49h1v1h-1z M36,49h1v2h-1z M40,49h2v1h-2z M43,49h1v2h-1z M49,49h1v2h-1z M52,49h1v1h-1z M29,50h2v1h-2z M35,50h1v1h-1z M46,50h2v1h-2z M37,51h2v2h-2z M40,51h1v2h-1z M48,51h1v1h-1z M52,51h1v1h-1z M21,52h5v1h-5z M28,52h3v1h-3z M32,52h3v1h-3z M36,52h1v1h-1z M39,52h1v1h-1z M41,52h3v1h-3z M46,52h1v1h-1z M50,52h1v1h-1z" fill="#000000"/>
</svg>
